# This file uses centimeters as units for non-parametric coordinates.

mtllib boat.mtl
g default
v 9.854385 26.020809 -138.051025
v 8.263840 13.251685 -126.086746
v -8.274673 13.251685 -126.086746
v -9.865219 26.020809 -138.051025
v -37.161484 20.813982 -26.755070
v -27.840530 10.740344 -26.709324
v 27.516312 10.735601 -26.706379
v 37.162273 20.820017 -26.755161
v -31.268448 22.059967 -86.062866
v -25.140335 8.669055 -86.062775
v 24.412338 8.684419 -86.062790
v 31.291916 22.082775 -86.062836
v -0.160233 13.775693 -129.212128
v -0.095993 27.223045 -142.043320
v 11.696854 26.020805 -139.487915
v 33.479233 22.304321 -86.062866
v 32.296005 13.260406 -86.062820
v 11.993576 15.744465 -132.937683
v 25.924240 2.599581 -86.062775
v 10.370102 6.249180 -120.992828
v -26.648087 2.599606 -86.062790
v -11.634659 6.249197 -120.981491
v -32.282578 13.260406 -86.062820
v -12.016647 15.744465 -132.920624
v -33.460098 22.289917 -86.062866
v -11.718582 26.020805 -139.470383
v -38.214279 13.260409 -26.755619
v -39.620987 20.884050 -26.755100
v -28.798874 1.641258 -26.587162
v 28.400253 1.772146 -26.599995
v 38.212780 13.260406 -26.756153
v 39.620983 20.888102 -26.755253
v -0.095993 16.080988 -137.708313
v -0.095993 27.223042 -144.279449
v -0.095993 6.249180 -126.050095
v -9.388504 4.607666 -86.062775
v -10.941238 -0.019932 -26.723972
v 10.126694 4.591595 -86.062775
v 12.162033 -0.050167 -26.723591
v -7.861404 -3.350979 -86.062775
v -9.147873 -6.622475 -26.702778
v 8.673325 -3.349964 -86.062790
v 10.368118 -6.635822 -26.702076
v 9.854385 26.020809 138.051025
v 8.263840 13.251685 125.219818
v -8.274673 13.251685 125.219818
v -9.865219 26.020809 138.051025
v -37.071823 20.857922 30.805155
v -27.809464 10.884355 30.757761
v 27.499069 10.880323 30.754694
v 37.073467 20.864550 30.805307
v -31.268448 22.059967 86.062881
v -25.140335 8.669055 86.062775
v 24.412338 8.684419 86.062805
v 31.291916 22.082775 86.062851
v -0.160233 13.775693 129.212128
v -0.095993 27.223045 142.043335
v 11.696854 26.020805 139.487915
v 33.479233 22.304321 86.062881
v 32.296005 13.260406 86.062836
v 11.993576 15.744465 132.937683
v 25.924240 2.599581 86.062775
v 9.499100 6.836098 124.115967
v -26.648087 2.599606 86.062805
v -10.763657 6.836115 124.104645
v -32.282578 13.260406 86.062836
v -12.016647 15.744465 132.920624
v -33.460098 22.289917 86.062881
v -11.718582 26.020805 139.470398
v -38.127060 13.260406 30.805750
v -39.530167 20.933628 30.805246
v -28.824661 1.866631 30.631083
v 28.410843 1.827198 30.644327
v 38.126141 13.260409 30.806299
v 39.530865 20.938044 30.805384
v -0.095993 16.707769 137.708313
v -0.095993 27.223042 144.279449
v -0.095993 7.957852 127.595154
v -9.388504 4.607666 86.062775
v -10.921524 0.082090 30.773020
v 10.126694 4.591595 86.062775
v 12.128922 0.052357 30.772608
v -7.861404 -3.350979 86.062775
v -9.132248 -6.507107 30.750956
v 8.673325 -3.349964 86.062805
v 10.341110 -6.519953 30.750116
v -32.026291 18.096745 -86.032867
v 32.665817 18.096745 -86.032867
v -10.928391 19.011049 -128.010498
v 11.566788 19.011049 -128.011810
v -27.021042 9.607162 -86.438004
v 27.660629 9.607160 -86.437637
v -31.102859 7.774732 -26.813663
v -30.942154 7.805419 -29.745380
v 30.682205 7.805416 -29.745380
v 30.842911 7.774728 -26.813663
v -36.639175 19.080355 -29.588276
v -36.890732 19.049662 -26.656559
v 36.630753 19.049677 -26.656513
v 36.379166 19.080355 -29.588276
v -31.102859 7.774732 30.846155
v -30.942154 7.805419 27.914438
v 30.682205 7.805416 27.914438
v 30.842911 7.774728 30.846155
v -36.639175 19.080355 28.071543
v -36.890732 19.049662 31.003260
v 36.630753 19.049677 31.003321
v 36.379166 19.080355 28.071543
v -30.424210 18.096745 83.354034
v 31.063736 18.096745 83.354034
v -10.856247 19.408920 128.595276
v 11.494034 19.408920 128.597198
v -28.090317 9.972428 83.354034
v 28.729874 9.972428 83.354034
vt 0.646791 0.527597
vt 0.598077 0.443267
vt 0.611453 0.438694
vt 0.651648 0.508627
vt 0.630193 0.434572
vt 0.655765 0.485834
vt 0.730228 0.439345
vt 0.689447 0.508754
vt 0.686770 0.485788
vt 0.712085 0.435035
vt 0.743540 0.444024
vt 0.694142 0.527750
vt 0.742151 0.346622
vt 0.753957 0.347501
vt 0.718987 0.345207
vt 0.682382 0.432901
vt 0.685565 0.344201
vt 0.623709 0.344784
vt 0.600296 0.345952
vt 0.588420 0.346720
vt 0.670631 0.515840
vt 0.670603 0.534909
vt 0.670543 0.493043
vt 0.657693 0.432681
vt 0.930170 0.566439
vt 0.962098 0.573725
vt 0.901387 0.686814
vt 0.892588 0.649124
vt 0.898575 0.564221
vt 0.791506 0.572248
vt 0.822774 0.565475
vt 0.859761 0.648807
vt 0.850283 0.686304
vt 0.810894 0.439474
vt 0.781483 0.440089
vt 0.945349 0.440872
vt 0.904638 0.439286
vt 0.975131 0.442150
vt 0.875792 0.655840
vt 0.875515 0.695196
vt 0.960504 0.024902
vt 0.857458 0.024901
vt 0.857458 0.013246
vt 0.960504 0.013246
vt 0.858133 0.041353
vt 0.955933 0.041353
vt 0.955933 0.053523
vt 0.858133 0.053522
vt 0.747111 0.053523
vt 0.747111 0.041353
vt 0.746091 0.013246
vt 0.746091 0.024902
vt 0.982588 0.024902
vt 0.982588 0.013246
vt 0.857357 0.563962
vt 0.854420 0.438664
vt 0.654892 0.344161
vt 0.648739 0.080745
vt 0.653419 0.099722
vt 0.612813 0.169205
vt 0.599498 0.164427
vt 0.631474 0.173569
vt 0.658896 0.117959
vt 0.731346 0.169587
vt 0.713210 0.173815
vt 0.686942 0.118297
vt 0.691347 0.099934
vt 0.696186 0.081008
vt 0.744680 0.164937
vt 0.742093 0.256157
vt 0.754032 0.255271
vt 0.719414 0.257516
vt 0.683528 0.175723
vt 0.685981 0.258329
vt 0.624265 0.257066
vt 0.601147 0.255515
vt 0.589269 0.254518
vt 0.672530 0.091988
vt 0.672667 0.073604
vt 0.672254 0.112258
vt 0.658918 0.175741
vt 0.933977 0.199898
vt 0.898359 0.118013
vt 0.907619 0.079031
vt 0.965989 0.193141
vt 0.902420 0.201471
vt 0.795810 0.191019
vt 0.856955 0.078488
vt 0.865300 0.117637
vt 0.826853 0.198597
vt 0.812384 0.315556
vt 0.783334 0.314145
vt 0.946550 0.317042
vt 0.905885 0.317913
vt 0.976197 0.316255
vt 0.882146 0.070105
vt 0.881609 0.109369
vt 0.434911 0.024902
vt 0.434911 0.013246
vt 0.534743 0.013246
vt 0.534743 0.024902
vt 0.535418 0.041353
vt 0.535418 0.053523
vt 0.437067 0.053523
vt 0.437067 0.041353
vt 0.639213 0.053523
vt 0.639213 0.041353
vt 0.638198 0.013246
vt 0.638199 0.024902
vt 0.415321 0.053523
vt 0.415321 0.041353
vt 0.861297 0.200852
vt 0.855740 0.317471
vt 0.655346 0.258085
vt 0.139577 0.876242
vt 0.151196 0.894098
vt 0.008668 0.895579
vt 0.019104 0.877494
vt 0.107703 0.989739
vt 0.058142 0.990253
vt 0.797983 0.926977
vt 0.797983 0.907180
vt 0.928018 0.907180
vt 0.928018 0.926977
vt 0.722143 0.937253
vt 0.722143 0.895908
vt 0.984618 0.895908
vt 0.984618 0.937253
vt 0.798618 0.979671
vt 0.798618 0.959875
vt 0.928651 0.959875
vt 0.928651 0.979671
vt 0.722777 0.989948
vt 0.722777 0.948603
vt 0.985100 0.948603
vt 0.985403 0.989948
vt 0.215743 0.876705
vt 0.259276 0.975925
vt 0.122209 0.974900
vt 0.165920 0.876332
vt 0.254050 0.994563
vt 0.127388 0.993615
vt 0.415321 0.024902
vt 0.415321 0.013246
vt 0.984138 0.041353
vt 0.984138 0.053523
vn 0.740768 -0.316390 -0.592588
vn 0.953218 -0.165447 -0.252986
vn 0.889551 -0.403696 -0.213843
vn 0.770268 -0.395930 -0.499927
vn 0.603734 -0.784772 -0.140139
vn 0.582314 -0.711550 -0.393200
vn -0.901667 -0.375797 -0.213946
vn -0.771889 -0.384483 -0.506320
vn -0.597887 -0.695580 -0.398371
vn -0.596801 -0.790774 -0.136032
vn -0.953307 -0.165131 -0.252858
vn -0.743384 -0.314744 -0.590183
vn -0.892726 -0.448938 -0.038651
vn -0.984680 -0.166014 -0.053337
vn -0.564882 -0.824812 -0.024356
vn -0.178488 -0.979770 -0.090515
vn -0.198408 -0.979842 -0.023315
vn 0.581073 -0.813449 -0.025573
vn 0.883193 -0.467383 -0.039017
vn 0.984657 -0.166187 -0.053215
vn -0.000454 -0.648202 -0.761468
vn -0.000132 -0.519232 -0.854634
vn -0.000434 -0.881705 -0.471800
vn 0.187706 -0.977804 -0.093096
vn -0.818240 0.436110 0.374555
vn -0.818240 0.436110 0.374555
vn -0.818240 0.436110 0.374555
vn -0.818240 0.436110 0.374555
vn -0.268939 0.938710 0.215628
vn -0.268939 0.938710 0.215628
vn -0.268939 0.938710 0.215628
vn 0.824455 0.417830 0.381696
vn 0.824455 0.417830 0.381696
vn 0.824455 0.417830 0.381696
vn 0.824455 0.417830 0.381696
vn 0.833835 0.549108 0.056566
vn 0.833835 0.549108 0.056566
vn 0.833835 0.549108 0.056566
vn 0.833835 0.549108 0.056566
vn -0.448306 0.893033 0.038902
vn -0.448306 0.893033 0.038902
vn -0.448306 0.893033 0.038902
vn -0.448306 0.893033 0.038902
vn -0.816366 0.574622 0.057922
vn -0.816366 0.574622 0.057922
vn -0.816366 0.574622 0.057922
vn -0.816366 0.574622 0.057922
vn 0.214513 0.677710 0.703344
vn 0.214513 0.677710 0.703344
vn 0.000960 0.694046 0.719930
vn -0.001094 0.694047 0.719929
vn -0.208878 0.678913 0.703880
vn -0.208878 0.678913 0.703880
vn -0.003865 0.997098 0.076037
vn -0.042308 0.997425 0.057916
vn -0.047922 0.997613 0.049719
vn -0.009170 0.996935 0.077692
vn 0.044342 0.997301 0.058529
vn 0.005468 0.997000 0.077214
vn 0.011061 0.996820 0.078921
vn 0.049981 0.997489 0.050174
vn 0.046214 0.998843 0.013323
vn 0.047311 0.998778 0.014261
vn -0.044741 0.998910 0.013310
vn -0.045792 0.998850 0.014245
vn 0.000073 0.998914 0.046583
vn 0.000467 0.998914 0.046581
vn 0.244038 0.946487 0.211205
vn 0.244038 0.946487 0.211205
vn 0.244038 0.946487 0.211205
vn 0.413114 0.910029 0.034402
vn 0.413114 0.910029 0.034402
vn 0.413114 0.910029 0.034402
vn 0.413114 0.910029 0.034402
vn 0.000305 0.977592 0.210511
vn -0.000155 0.978083 0.208216
vn -0.017968 0.977052 0.212244
vn 0.001083 0.996964 0.077864
vn 0.001083 0.996964 0.077864
vn 0.001083 0.996964 0.077864
vn 0.001083 0.996964 0.077864
vn 0.018380 0.977193 0.211557
vn 0.001644 0.978092 0.208169
vn 0.208269 -0.977770 -0.024282
vn 0.740912 -0.320342 0.590280
vn 0.780807 -0.382162 0.494260
vn 0.889483 -0.399426 0.221988
vn 0.951208 -0.165378 0.260489
vn 0.603308 -0.783694 0.147793
vn 0.561739 -0.720832 0.406019
vn -0.901462 -0.371535 0.222098
vn -0.596599 -0.789741 0.142757
vn -0.579615 -0.703258 0.411673
vn -0.783979 -0.366603 0.500979
vn -0.743496 -0.318678 0.587927
vn -0.951300 -0.165058 0.260354
vn -0.892070 -0.450043 0.040906
vn -0.984508 -0.166113 0.056137
vn -0.565137 -0.824573 0.026465
vn -0.178241 -0.978936 0.099572
vn -0.199453 -0.979577 0.025452
vn 0.580935 -0.813499 0.027087
vn 0.882899 -0.467771 0.040983
vn 0.984486 -0.166286 0.056006
vn -0.000582 -0.621252 0.783611
vn -0.000138 -0.530680 0.847572
vn 0.000648 -0.877483 0.479607
vn 0.185951 -0.977160 0.102861
vn -0.825946 0.519517 -0.218896
vn -0.811416 0.447184 -0.376338
vn -0.811416 0.447184 -0.376338
vn -0.826030 0.525197 -0.204555
vn -0.268659 0.937734 -0.220173
vn -0.415922 0.906268 -0.075411
vn -0.407483 0.909313 -0.084311
vn 0.838931 0.502350 -0.209379
vn 0.817637 0.429375 -0.383546
vn 0.817637 0.429375 -0.383546
vn 0.838412 0.497716 -0.222136
vn 0.833601 0.549223 -0.058846
vn 0.833601 0.549223 -0.058846
vn -0.449118 0.892596 -0.039577
vn -0.449118 0.892596 -0.039577
vn -0.816259 0.574521 -0.060391
vn -0.816259 0.574520 -0.060391
vn 0.240339 0.686121 -0.686640
vn -0.001233 0.707040 -0.707172
vn 0.001119 0.707039 -0.707174
vn 0.240339 0.686121 -0.686640
vn -0.234085 0.687585 -0.687336
vn -0.234085 0.687585 -0.687336
vn -0.003865 0.997098 -0.076037
vn -0.009170 0.996935 -0.077692
vn -0.048027 0.997525 -0.051353
vn -0.042144 0.997340 -0.059479
vn 0.044194 0.997213 -0.060116
vn 0.050109 0.997398 -0.051832
vn 0.011060 0.996820 -0.078920
vn 0.005467 0.997000 -0.077213
vn 0.046109 0.998834 -0.014278
vn 0.047341 0.998762 -0.015282
vn -0.044639 0.998901 -0.014268
vn -0.045821 0.998833 -0.015268
vn 0.000467 0.998914 -0.046581
vn 0.000073 0.998914 -0.046583
vn 0.382667 0.921185 -0.070595
vn 0.243795 0.945543 -0.215666
vn 0.374651 0.923750 -0.079520
vn 0.414199 0.909523 -0.034737
vn 0.414199 0.909523 -0.034737
vn 0.000373 0.976902 -0.213687
vn -0.042506 0.975095 -0.217677
vn -0.001349 0.978024 -0.208489
vn 0.001072 0.996657 -0.081697
vn 0.001072 0.996657 -0.081697
vn 0.001072 0.996657 -0.081697
vn 0.001072 0.996657 -0.081697
vn 0.043555 0.975302 -0.216539
vn 0.002796 0.978039 -0.208404
vn 0.208265 -0.977725 0.026070
vn 0.733375 0.679822 -0.001881
vn 0.733375 0.679822 -0.001881
vn 0.733375 0.679822 -0.001881
vn 0.733375 0.679822 -0.001881
vn -0.722204 0.691677 -0.001804
vn -0.722204 0.691677 -0.001804
vn -0.722204 0.691677 -0.001804
vn -0.722204 0.691678 -0.001804
vn -0.575365 0.817895 -0.002011
vn -0.575365 0.817895 -0.002011
vn -0.575365 0.817894 -0.002011
vn -0.575365 0.817894 -0.002011
vn 0.001299 0.999998 -0.001779
vn 0.001299 0.999998 -0.001779
vn 0.001299 0.999998 -0.001779
vn 0.001299 0.999998 -0.001779
vn 0.537967 0.842963 -0.002042
vn 0.537967 0.842963 -0.002042
vn 0.537967 0.842963 -0.002042
vn 0.537967 0.842963 -0.002042
vn -0.000003 -0.047646 0.998864
vn -0.000003 -0.047646 0.998864
vn -0.000003 -0.047646 0.998864
vn -0.000003 -0.047646 0.998864
vn 0.000000 0.999763 0.021775
vn 0.000000 0.999763 0.021775
vn 0.000000 0.999763 0.021775
vn 0.000000 0.999763 0.021775
vn -0.000000 0.999945 0.010466
vn -0.000000 0.999945 0.010466
vn -0.000000 0.999945 0.010466
vn -0.000000 0.999945 0.010466
vn -0.889444 -0.452066 -0.067270
vn -0.889444 -0.452066 -0.067270
vn -0.889444 -0.452066 -0.067270
vn -0.889444 -0.452066 -0.067270
vn -0.000000 -0.013935 0.999903
vn -0.000000 -0.013935 0.999903
vn -0.000000 -0.013935 0.999903
vn -0.000000 -0.013935 0.999903
vn 0.889446 -0.452063 -0.067273
vn 0.889446 -0.452063 -0.067273
vn 0.889446 -0.452063 -0.067273
vn 0.889446 -0.452063 -0.067273
vn 0.000000 0.013933 -0.999903
vn 0.000000 0.013933 -0.999903
vn 0.000000 0.013933 -0.999903
vn 0.000000 0.013933 -0.999903
vn -0.000000 0.999945 0.010466
vn -0.000000 0.999945 0.010466
vn -0.000000 0.999945 0.010466
vn -0.000000 0.999945 0.010466
vn -0.889444 -0.452066 -0.067270
vn -0.889444 -0.452066 -0.067270
vn -0.889444 -0.452066 -0.067270
vn -0.889444 -0.452066 -0.067270
vn -0.000000 -0.013935 0.999903
vn -0.000000 -0.013935 0.999903
vn -0.000000 -0.013935 0.999903
vn -0.000000 -0.013935 0.999903
vn 0.889446 -0.452063 -0.067273
vn 0.889446 -0.452063 -0.067273
vn 0.889446 -0.452063 -0.067273
vn 0.889446 -0.452063 -0.067273
vn 0.000000 0.013933 -0.999903
vn 0.000000 0.013933 -0.999903
vn 0.000000 0.013933 -0.999903
vn 0.000000 0.013933 -0.999903
vn 0.000001 0.999580 -0.028991
vn 0.000001 0.999580 -0.028991
vn 0.000001 0.999580 -0.028991
vn 0.000001 0.999580 -0.028991
vn 0.000000 0.000000 -1.000000
vn 0.000000 0.000000 -1.000000
vn 0.000000 0.000000 -1.000000
vn 0.000000 0.000000 -1.000000
s 1
g SM_Boat2
usemtl xuong:lambert4SG
f 15/1/1 16/2/2 17/3/3 18/4/4
f 19/5/5 20/6/6 18/4/4 17/3/3
f 23/7/7 24/8/8 22/9/9 21/10/10
f 24/8/8 23/7/7 25/11/11 26/12/12
f 27/13/13 28/14/14 25/11/11 23/7/7
f 27/13/13 23/7/7 21/10/10 29/15/15
f 40/16/16 41/17/17 29/15/15 21/10/10
f 30/18/18 19/5/5 17/3/3 31/19/19
f 32/20/20 31/19/19 17/3/3 16/2/2
f 33/21/21 24/8/8 26/12/12 34/22/22
f 22/9/9 24/8/8 33/21/21 35/23/23
f 35/23/23 33/21/21 18/4/4 20/6/6
f 18/4/4 33/21/21 34/22/22 15/1/1
f 22/9/9 40/16/16 21/10/10
f 35/23/23 42/24/24 40/16/16
s off
f 11/25/25 12/26/26 1/27/27 2/28/28
f 2/28/29 38/29/30 11/25/31
f 9/30/32 10/31/33 3/32/34 4/33/35
f 6/34/36 10/31/37 9/30/38 5/35/39
f 7/36/40 11/25/41 38/29/42 39/37/43
f 8/38/44 12/26/45 11/25/46 7/36/47
s 3
f 4/33/48 3/32/49 13/39/50 14/40/51
f 13/39/50 2/28/52 1/27/53 14/40/51
s 4
f 1/41/54 12/42/55 16/43/56 15/44/57
f 9/45/58 4/46/59 26/47/60 25/48/61
f 28/49/62 5/50/63 9/45/58 25/48/61
f 32/51/64 16/43/56 12/42/55 8/52/65
f 4/46/59 14/145/66 34/146/67 26/47/60
f 14/53/66 1/41/54 15/44/57 34/54/67
s off
f 10/31/68 36/55/69 3/32/70
f 37/56/71 36/55/72 10/31/73 6/34/74
s 6
f 13/39/75 38/29/76 2/28/77
s off
f 39/37/78 38/29/79 36/55/80 37/56/81
s 6
f 3/32/82 36/55/83 13/39/75
f 13/39/75 36/55/83 38/29/76
s 1
f 22/9/9 35/23/23 40/16/16
f 43/57/84 41/17/17 40/16/16 42/24/24
f 42/24/24 20/6/6 19/5/5
f 30/18/18 43/57/84 42/24/24 19/5/5
f 42/24/24 35/23/23 20/6/6
f 58/58/85 61/59/86 60/60/87 59/61/88
f 62/62/89 60/60/87 61/59/86 63/63/90
f 66/64/91 64/65/92 65/66/93 67/67/94
f 67/67/94 69/68/95 68/69/96 66/64/91
f 70/70/97 66/64/91 68/69/96 71/71/98
f 70/70/97 72/72/99 64/65/92 66/64/91
f 83/73/100 64/65/92 72/72/99 84/74/101
f 73/75/102 74/76/103 60/60/87 62/62/89
f 75/77/104 59/61/88 60/60/87 74/76/103
f 76/78/105 77/79/106 69/68/95 67/67/94
f 65/66/93 78/80/107 76/78/105 67/67/94
f 78/80/107 63/63/90 61/59/86 76/78/105
f 61/59/86 58/58/85 77/79/106 76/78/105
f 65/66/93 64/65/92 83/73/100
f 78/80/107 83/73/100 85/81/108
s 9
f 54/82/109 45/83/110 44/84/111 55/85/112
s 10
f 45/83/113 54/82/114 81/86/115
s 11
f 52/87/116 47/88/117 46/89/118 53/90/119
f 49/91/120 48/92/121 52/87/116 53/90/119
s 10
f 50/93/122 82/94/123 81/86/115 54/82/114
s 9
f 51/95/124 50/93/125 54/82/109 55/85/112
s 12
f 47/88/126 57/96/127 56/97/128 46/89/129
f 56/97/128 57/96/127 44/84/130 45/83/131
s 4
f 44/98/132 58/99/133 59/100/134 55/101/135
f 52/102/136 68/103/137 69/104/138 47/105/139
f 71/106/140 68/103/137 52/102/136 48/107/141
f 75/108/142 51/109/143 55/101/135 59/100/134
f 47/105/139 69/104/138 77/110/144 57/111/145
f 57/143/145 77/144/144 58/99/133 44/98/132
s 15
f 53/90/146 46/89/147 79/112/148
f 80/113/149 49/91/150 53/90/146 79/112/148
s 16
f 56/97/151 45/83/152 81/86/153
s off
f 82/94/154 80/113/155 79/112/156 81/86/157
s 16
f 46/89/158 56/97/151 79/112/159
f 56/97/151 81/86/153 79/112/159
s 1
f 65/66/93 83/73/100 78/80/107
f 86/114/160 85/81/108 83/73/100 84/74/101
f 85/81/108 62/62/89 63/63/90
f 73/75/102 62/62/89 85/81/108 86/114/160
f 85/81/108 63/63/90 78/80/107
s off
f 6/34/161 5/35/162 48/92/163 49/91/164
s 4
f 5/50/63 28/49/62 71/106/140 48/107/141
s 1
f 28/14/14 27/13/13 70/70/97 71/71/98
f 27/13/13 29/15/15 72/72/99 70/70/97
f 29/15/15 41/17/17 84/74/101 72/72/99
f 41/17/17 43/57/84 86/114/160 84/74/101
f 43/57/84 30/18/18 73/75/102 86/114/160
f 30/18/18 31/19/19 74/76/103 73/75/102
f 31/19/19 32/20/20 75/77/104 74/76/103
s 4
f 32/51/64 8/52/65 51/109/143 75/108/142
s off
f 8/38/165 7/36/166 50/93/167 51/95/168
f 7/36/169 39/37/170 82/94/171 50/93/172
f 39/37/173 37/56/174 80/113/175 82/94/176
f 37/56/177 6/34/178 49/91/179 80/113/180
f 92/115/181 88/116/182 87/117/183 91/118/184
f 90/119/185 89/120/186 87/117/187 88/116/188
f 97/121/189 98/122/190 99/123/191 100/124/192
f 94/125/193 93/126/194 98/122/195 97/121/196
f 98/122/197 93/126/198 96/127/199 99/123/200
f 96/127/201 95/128/202 100/124/203 99/123/204
f 97/121/205 100/124/206 95/128/207 94/125/208
f 105/129/209 106/130/210 107/131/211 108/132/212
f 102/133/213 101/134/214 106/130/215 105/129/216
f 106/130/217 101/134/218 104/135/219 107/131/220
f 104/135/221 103/136/222 108/132/223 107/131/224
f 105/129/225 108/132/226 103/136/227 102/133/228
f 112/137/229 110/138/230 109/139/231 111/140/232
f 109/139/233 110/138/234 114/141/235 113/142/236
