# This file uses centimeters as units for non-parametric coordinates.

mtllib SM_Planeasset.mtl
g default
v -17.958527 -96.780579 10.898071
v -123.935516 211.877655 10.898071
v -10.539642 250.811829 10.898071
v 95.437317 -57.846436 10.898071
v 4.041870 -69.362366 -10.898071
v 4.041870 256.982574 -10.898071
v 123.935516 256.982574 -10.898071
v 123.935516 -69.362366 -10.898071
vt 0.037153 0.077251
vt 0.105863 0.077251
vt 0.105863 0.264276
vt 0.037153 0.264276
vt 0.117042 0.077251
vt 0.185752 0.077251
vt 0.185752 0.264276
vt 0.117042 0.264276
vn 0.000000 0.000000 1.000000
vn 0.000000 0.000000 1.000000
vn 0.000000 0.000000 1.000000
vn 0.000000 0.000000 1.000000
vn 0.000000 0.000000 1.000000
vn 0.000000 0.000000 1.000000
vn 0.000000 0.000000 1.000000
vn 0.000000 0.000000 1.000000
s off
g SM_planegrass SM_PlaneAsset
usemtl lambert2SG
f 1/1/1 4/2/2 3/3/3 2/4/4
f 5/5/5 8/6/6 7/7/7 6/8/8
g default
v -443.289398 -0.253439 24.780460
v 443.289368 -0.253439 24.780460
v -443.289398 576.736755 24.780457
v 443.289368 576.736755 24.780457
v 132.973557 -0.253474 -24.780453
v -132.973450 -0.253474 -24.780460
v -132.973450 576.736755 -24.780457
v 132.973557 576.736755 -24.780457
vt 0.191714 0.987821
vt 0.014625 0.987821
vt 0.014625 0.658548
vt 0.520571 0.987821
vt 0.343482 0.658549
vt 0.520571 0.658548
vt 0.191714 0.658548
vt 0.343482 0.987821
vn 0.085688 0.000000 0.996322
vn 0.085688 0.000000 0.996322
vn 0.157712 0.000000 0.987485
vn 0.157712 0.000000 0.987485
vn -0.157712 0.000000 0.987485
vn -0.085688 0.000000 0.996322
vn -0.085688 0.000000 0.996322
vn -0.157712 0.000000 0.987485
s 1
g SM_PlaneAsset SM_Planetree
usemtl lambert2SG
f 14/15/9 15/9/10 11/10/11 9/11/12
f 12/12/13 16/16/14 13/13/15 10/14/16
f 14/15/9 13/13/15 16/16/14 15/9/10
g default
v -424.935059 -5.568987 0.000000
v 381.783722 -5.568987 0.000000
v -424.935059 519.447937 0.000000
v 381.783722 519.447937 0.000000
vt 0.533513 0.955371
vt 0.533513 0.657106
vt 0.991813 0.955371
vt 0.991813 0.657106
vn 0.000000 0.000000 1.000000
vn 0.000000 0.000000 1.000000
vn 0.000000 0.000000 1.000000
vn 0.000000 0.000000 1.000000
s off
g SM_PlaneAsset SM_Planefence
usemtl lambert2SG
f 17/18/17 18/20/18 20/19/19 19/17/20
g default
v -293.373108 -7.686442 0.000000
v -293.373108 569.303711 0.000000
v 293.373108 569.303711 0.000000
v 293.373108 -7.686442 0.000000
vt 0.014898 0.272984
vt 0.014898 0.618078
vt 0.347804 0.618078
vt 0.347804 0.272984
vn 0.000000 0.000000 1.000000
vn 0.000000 0.000000 1.000000
vn 0.000000 0.000000 1.000000
vn 0.000000 0.000000 1.000000
s off
g SM_PlaneAsset SM_Planetree1
usemtl lambert2SG
f 21/21/21 24/24/22 23/23/23 22/22/24
g default
v 640.685608 -3.434267 0.000000
v 640.685608 573.555908 0.000000
v -477.004150 573.555908 0.000000
v -477.004150 -3.434267 0.000000
vt 0.367846 0.619548
vt 0.367846 0.275145
vt 0.990441 0.275145
vt 0.990441 0.619548
vn 0.000000 0.000000 1.000000
vn 0.000000 0.000000 1.000000
vn 0.000000 0.000000 1.000000
vn 0.000000 0.000000 1.000000
s off
g SM_PlaneAsset SM_House
usemtl lambert2SG
f 27/25/25 28/26/26 25/27/27 26/28/28
g default
v -733.295898 -22.389488 -0.000001
v 418.494080 -22.389488 -0.000001
v -733.295898 252.776855 -0.000007
v 418.494080 252.776855 -0.000007
v -330.152100 -22.389647 -51.049374
v -330.152100 252.776855 -51.049385
vt 0.522916 0.010101
vt 0.522916 0.183754
vt 0.268498 0.183754
vt 0.268498 0.010101
vt 0.995376 0.010101
vt 0.995376 0.183754
vn -0.000000 0.000000 1.000000
vn 0.000000 0.000000 1.000000
vn 0.125625 0.000000 0.992078
vn 0.125625 0.000000 0.992078
vn -0.068031 0.000000 0.997683
vn -0.068031 0.000000 0.997683
s 1
g SM_PlaneAsset SM_Houses
usemtl lambert2SG
f 33/29/29 34/30/30 31/31/31 29/32/32
f 33/29/29 30/33/33 32/34/34 34/30/30
